<svg width="72" height="40" viewBox="0 0 72 40" fill="none" xmlns="http://www.w3.org/2000/svg">
<g clip-path="url(#clip0_8388_3354)">
<path d="M14.4238 4.80899L13.1912 11.7966H8.91248C4.92071 11.7966 1.11591 15.0294 0.410715 19.0197L0.112228 20.7181C-0.589682 24.7083 2.07366 27.9412 6.06543 27.9412H9.63407C12.5434 27.9412 15.315 25.587 15.8267 22.6788L19.1133 4.05542L14.4238 4.80899ZM11.3878 22.0198C11.2304 22.9181 10.4213 23.6494 9.52256 23.6494H7.35448C5.56031 23.6494 4.35984 22.1935 4.67471 20.3967L4.86168 19.3377C5.17983 17.5442 6.89199 16.0852 8.68615 16.0852H12.4347L11.3878 22.0198ZM47.3757 27.9409L50.1834 12.0192H54.6245L51.8168 27.9409H47.3757ZM47.8561 12.2028C47.6335 13.4656 47.4099 14.7285 47.1873 15.9914C45.0833 15.3378 42.9125 15.546 42.2456 15.6789C41.5254 19.7672 40.8042 23.8565 40.083 27.9448H35.6389C36.2424 24.524 38.3042 12.8416 38.3042 12.8416C39.7496 12.2433 43.2991 11.029 47.8561 12.2028ZM29.8494 11.7939H26.3924C23.0238 11.7939 19.8128 14.5218 19.219 17.8891L18.5204 21.8465C17.9267 25.2138 20.1736 27.9418 23.5422 27.9418H30.8959L31.6503 23.663H24.7392C23.6175 23.663 22.8664 22.7547 23.0665 21.6301L23.0895 21.4957H34.2316L34.8679 17.8891C35.4615 14.5218 33.2148 11.7939 29.8462 11.7939H29.8494ZM30.4103 17.5481L30.3841 17.7776H23.7586L23.7947 17.5743C23.9947 16.453 25.0181 15.4661 26.143 15.4661H28.731C29.843 15.4661 30.5941 16.4366 30.4103 17.5481ZM67.5083 12.0192H71.9526C70.4387 16.0427 66.9691 22.8872 63.6082 27.9409H59.1639C57.6212 23.1309 56.625 16.4291 56.4349 12.0192H60.8794C60.9596 13.4577 61.6038 18.7934 62.339 22.5209C64.3555 18.8946 66.5786 14.1367 67.5049 12.0192H67.5083Z" fill="#FF444F"/>
</g>
<defs>
<clipPath id="clip0_8388_3354">
<rect width="72" height="23.8894" fill="white" transform="translate(0 4.05542)"/>
</clipPath>
</defs>
</svg>
